<?xml version="1.0" encoding="UTF-8"?>
<svg width="34px" height="26px" viewBox="0 0 34 26" version="1.1" xmlns="http://www.w3.org/2000/svg" xmlns:xlink="http://www.w3.org/1999/xlink">
    <!-- Generator: Sketch 52.2 (67145) - http://www.bohemiancoding.com/sketch -->
    <title>Group 11</title>
    <desc>Created with Sketch.</desc>
    <g id="fróði" stroke="none" stroke-width="1" fill="none" fill-rule="evenodd">
        <g id="iPhone-8-Copy" transform="translate(-290.000000, -615.000000)">
            <g id="Group-11" transform="translate(290.000000, 615.000000)">
                <path d="M33.0899548,19.4349843 L33.0899548,6 C33.0899548,2.6862915 30.4036633,4.29120242e-14 27.0899548,4.35207426e-14 L12.8602452,4.30766534e-14 C12.0054896,4.32336694e-14 11.1913202,0.364606971 10.6221345,1.00228622 L0.759642062,12.0515919 C0.421026237,12.4309554 0.421024405,13.0040306 0.759637804,13.3833963 L10.6208486,24.4314083 C11.1899908,25.069047 12.0040866,25.4336549 12.8587829,25.4337088 L27.0899548,25.4349843 C30.4036633,25.4351932 33.0901242,22.7490711 33.0903331,19.4353626 C33.0903331,19.4352365 33.0903331,19.4351104 33.0903331,19.4349843 Z" id="Path-2" fill="#2B2B2B"></path>
                <path d="M27.1452238,16.4861995 C27.4288305,16.7749571 27.547,17.135904 27.547,17.5209141 C27.547,18.4353131 26.7198138,19.2053333 25.8217259,19.2053333 C25.2781464,19.2053333 24.8527364,18.9165758 24.498228,18.5075025 L21.8985,15.4033586 L19.298772,18.5075025 C18.9442636,18.9165758 18.5424874,19.2053333 17.9752741,19.2053333 C17.1008201,19.2053333 16.25,18.4353131 16.25,17.5209141 C16.25,17.135904 16.3918033,16.7749571 16.6517762,16.4861995 L19.7950837,12.8526667 L16.6517762,9.21913384 C16.4154372,8.93037626 16.2736339,8.59349242 16.2736339,8.20848232 C16.2736339,7.2700202 17.124454,6.5 17.9989079,6.5 C18.5424874,6.5 19.0151653,6.76469444 19.3224059,7.19783081 L21.8985,10.3019747 L24.4745941,7.19783081 C24.8291025,6.76469444 25.2545126,6.5 25.8217259,6.5 C26.672546,6.5 27.5233661,7.2700202 27.5233661,8.20848232 C27.5233661,8.59349242 27.3815628,8.93037626 27.1452238,9.21913384 L24.0019163,12.8526667 L27.1452238,16.4861995 Z" id="x" fill="#FFFFFF"></path>
            </g>
        </g>
    </g>
</svg>