<?xml version="1.0" encoding="UTF-8"?>
<svg width="26px" height="26px" viewBox="0 0 26 26" version="1.1" xmlns="http://www.w3.org/2000/svg" xmlns:xlink="http://www.w3.org/1999/xlink">
    <!-- Generator: Sketch 52.2 (67145) - http://www.bohemiancoding.com/sketch -->
    <title>Group 10</title>
    <desc>Created with Sketch.</desc>
    <g id="fróði" stroke="none" stroke-width="1" fill="none" fill-rule="evenodd">
        <g id="iPhone-8-Copy" transform="translate(-50.000000, -614.000000)">
            <g id="Group-10" transform="translate(50.000000, 614.000000)">
                <rect id="Rectangle" fill="#2B2B2B" x="0" y="0" width="26" height="26" rx="13"></rect>
                <path d="M18.0571297,16.2180303 C18.3189205,16.4845758 18.428,16.8177576 18.428,17.1731515 C18.428,18.0172121 17.6644435,18.728 16.8354393,18.728 C16.3336736,18.728 15.9409874,18.4614545 15.613749,18.0838485 L13.214,15.2184848 L10.814251,18.0838485 C10.4870126,18.4614545 10.1161423,18.728 9.59256067,18.728 C8.78537238,18.728 8,18.0172121 8,17.1731515 C8,16.8177576 8.1308954,16.4845758 8.37087029,16.2180303 L11.2723849,12.864 L8.37087029,9.5099697 C8.1527113,9.24342424 8.0218159,8.93245455 8.0218159,8.57706061 C8.0218159,7.71078788 8.80718828,7 9.61437657,7 C10.1161423,7 10.5524603,7.24433333 10.8360669,7.64415152 L13.214,10.5095152 L15.5919331,7.64415152 C15.9191715,7.24433333 16.3118577,7 16.8354393,7 C17.6208117,7 18.4061841,7.71078788 18.4061841,8.57706061 C18.4061841,8.93245455 18.2752887,9.24342424 18.0571297,9.5099697 L15.1556151,12.864 L18.0571297,16.2180303 Z" id="x-copy" fill="#FFFFFF"></path>
            </g>
        </g>
    </g>
</svg>