<?xml version="1.0" encoding="UTF-8"?>
<svg width="25px" height="26px" viewBox="0 0 25 26" version="1.1" xmlns="http://www.w3.org/2000/svg" xmlns:xlink="http://www.w3.org/1999/xlink">
    <!-- Generator: Sketch 52.2 (67145) - http://www.bohemiancoding.com/sketch -->
    <title>Group</title>
    <desc>Created with Sketch.</desc>
    <g id="fróði" stroke="none" stroke-width="1" fill="none" fill-rule="evenodd">
        <g id="iPhone-8-Copy" transform="translate(-15.000000, -31.000000)" fill="#FFFFFF">
            <g id="Group" transform="translate(15.000000, 31.000000)">
                <path d="M2.06737699,10.9032258 C2.89220369,10.9032258 3.63725431,10.3996689 3.95630595,9.62604907 C5.27363802,6.434767 8.37121402,4.18570663 11.9823584,4.18570663 C13.972653,4.18570663 15.7973398,4.87933557 17.2602171,6.02977979 L16.1136006,6.21026788 C15.7219343,6.27200112 15.4172582,6.58794897 15.3641794,6.98726079 C15.3109954,7.38635844 15.5225731,7.7735699 15.8837507,7.93858452 L22.1892728,10.8229672 C22.4656719,10.9491643 22.785882,10.9249101 23.0406389,10.7584498 C23.2949745,10.5917219 23.4494715,10.3055966 23.4511565,9.99773352 L23.4838568,2.93331956 C23.4860685,2.53143776 23.2284154,2.17602989 22.8507034,2.05888129 C22.4723594,1.94173269 22.0636321,2.09041718 21.8447349,2.4249439 L20.9756233,3.75303851 C18.6584311,1.43373182 15.4832906,0 11.9823584,0 C6.67401092,0 2.11002954,3.29611614 0.163493303,7.98088223 C-0.106850176,8.63023243 -0.0387114031,9.37376195 0.344055787,9.96121828 C0.726822976,10.5488888 1.37382538,10.9032258 2.06737699,10.9032258 Z" id="Path"></path>
                <path d="M23.9786076,16.0387863 C23.5957881,15.4510594 22.9487337,15.0967742 22.2552354,15.0967742 C21.4304095,15.0967742 20.6853596,15.6003336 20.3663083,16.3739572 C19.0489249,19.5652549 15.9513519,21.8143264 12.3402637,21.8143264 C10.3499184,21.8143264 8.52523333,21.120694 7.06230477,19.9702441 L8.20897284,19.7898622 C8.6005861,19.7281287 8.90526196,19.4121258 8.95844596,19.0127584 C9.0115773,18.6137124 8.80005242,18.2264455 8.43887515,18.06143 L2.13335924,15.1770332 C1.85690776,15.050889 1.53675062,15.0750363 1.28194135,15.2415509 C1.02765865,15.4082796 0.873109106,15.6944063 0.871476726,16.0022174 L0.838723808,23.066666 C0.836512196,23.4685498 1.09411231,23.8239594 1.47187668,23.9411086 C1.85022027,24.0582578 2.25899985,23.909519 2.47784411,23.5749371 L3.34695489,22.246836 C5.66409219,24.5662611 8.8392822,26 12.340211,26 C17.6486586,26 22.2124776,22.7039212 24.1589593,18.0191321 C24.4294605,17.3697787 24.3613218,16.6262991 23.9786076,16.0387863 Z" id="Path"></path>
            </g>
        </g>
    </g>
</svg>