<?xml version="1.0" encoding="UTF-8"?>
<svg width="26px" height="26px" viewBox="0 0 26 26" version="1.1" xmlns="http://www.w3.org/2000/svg" xmlns:xlink="http://www.w3.org/1999/xlink">
    <!-- Generator: Sketch 52.2 (67145) - http://www.bohemiancoding.com/sketch -->
    <title>Group 12</title>
    <desc>Created with Sketch.</desc>
    <g id="fróði" stroke="none" stroke-width="1" fill="none" fill-rule="evenodd">
        <g id="iPhone-8-Copy" transform="translate(-334.000000, -31.000000)" fill="#FFFFFF" fill-rule="nonzero">
            <g id="Group-12" transform="translate(334.000000, 31.000000)">
                <path d="M24.6538622,10.2643549 L22.8300626,9.95496033 C22.6400835,9.34159916 22.3958246,8.7499499 22.097286,8.1854405 L23.1720251,6.68189144 C23.6279749,6.0413904 23.5574113,5.16748643 22.9983299,4.61383299 L21.3807933,2.99629645 C21.0768267,2.69232985 20.6751566,2.52406263 20.2463466,2.52406263 C19.9098121,2.52406263 19.5895616,2.62719415 19.3181628,2.82260125 L17.8091858,3.89734029 C17.2229645,3.58794572 16.6096033,3.3328309 15.9745303,3.14285177 L15.6705637,1.34076409 C15.5402923,0.564563674 14.8726514,5.42797495e-05 14.085595,5.42797495e-05 L11.8004175,5.42797495e-05 C11.0133612,5.42797495e-05 10.3457203,0.564563674 10.2154489,1.34076409 L9.9006263,3.18627557 C9.29269311,3.3762547 8.70104384,3.62594154 8.13653445,3.92990814 L6.64384134,2.8551691 C6.37244259,2.659762 6.04676409,2.55663048 5.71022965,2.55663048 C5.28141962,2.55663048 4.8743215,2.7248977 4.57578288,3.0288643 L2.95281837,4.64640084 C2.39916493,5.20005428 2.32317328,6.07395825 2.77912317,6.71445929 L3.86471816,8.23972025 C3.56617954,8.80965762 3.32734864,9.40130689 3.14279749,10.0146681 L1.34070981,10.3186347 C0.564509395,10.4489061 -7.10542736e-15,11.116547 -7.10542736e-15,11.9036033 L-7.10542736e-15,14.1887808 C-7.10542736e-15,14.9758372 0.564509395,15.6434781 1.34070981,15.7737495 L3.18622129,16.088572 C3.37620042,16.6965052 3.62588727,17.2881545 3.92985386,17.8526639 L2.8605428,19.339929 C2.4045929,19.9804301 2.47515658,20.854334 3.034238,21.4079875 L4.65177453,23.025524 C4.95574113,23.3294906 5.35741127,23.4977578 5.78622129,23.4977578 C6.12275574,23.4977578 6.44300626,23.3946263 6.71440501,23.1992192 L8.23966597,22.1136242 C8.78789144,22.4013069 9.36325678,22.6347098 9.95490605,22.819261 L10.2588727,24.6430605 C10.3891441,25.419261 11.056785,25.9837704 11.8438413,25.9837704 L14.1344468,25.9837704 C14.9215031,25.9837704 15.5891441,25.419261 15.7194154,24.6430605 L16.02881,22.819261 C16.6421712,22.6292818 17.2338205,22.385023 17.7983299,22.0864843 L19.3018789,23.1612234 C19.5732777,23.3566305 19.8989562,23.459762 20.2354906,23.459762 C20.6643006,23.459762 21.0659708,23.2914948 21.3699374,22.9875282 L22.9874739,21.3699916 C23.5411273,20.8163382 23.617119,19.9424342 23.1611691,19.3019332 L22.0864301,17.7929562 C22.3849687,17.2230188 22.6346555,16.6313695 22.8192067,16.0234363 L24.6430063,15.7194697 C25.4192067,15.5891983 25.9837161,14.9215574 25.9837161,14.134501 L25.9837161,11.8493236 C25.994572,11.0622672 25.4300626,10.3946263 24.6538622,10.2643549 Z M23.5294894,14.0356775 C23.5294894,14.1001235 23.4848729,14.1546548 23.4204269,14.1645696 L21.3383245,14.5115866 C21.075583,14.5562031 20.8673727,14.7495412 20.8029267,15.0023679 C20.614546,15.7311038 20.3270176,16.4300953 19.9403414,17.079513 C19.806492,17.3075527 19.8164067,17.5901238 19.9700857,17.8082488 L21.1945602,19.5334194 C21.2292619,19.5829932 21.2243046,19.657354 21.1796881,19.7019705 L19.7023868,21.1792718 C19.6676851,21.2139735 19.6329834,21.2189309 19.6081965,21.2189309 C19.5784522,21.2189309 19.5536652,21.2090161 19.5338357,21.1941439 L17.8136225,19.9696694 C17.6004549,19.8159904 17.3129264,19.8060756 17.0848867,19.9399251 C16.435469,20.3266013 15.7364775,20.6141297 15.0077416,20.8025104 C14.7499575,20.8669564 14.5566194,21.080124 14.5169603,21.3379081 L14.1649859,23.4200106 C14.1550711,23.4844566 14.1005399,23.5290731 14.0360938,23.5290731 L11.949034,23.5290731 C11.884588,23.5290731 11.8300567,23.4844566 11.820142,23.4200106 L11.4731249,21.3379081 C11.4285084,21.0751666 11.2351703,20.8669564 10.9823436,20.8025104 C10.2734373,20.6190871 9.58931794,20.336516 8.94981506,19.9696694 C8.84570993,19.9101808 8.72673265,19.8804364 8.61271276,19.8804364 C8.47886332,19.8804364 8.34005649,19.9200955 8.2260366,20.0043711 L6.49095125,21.2387604 C6.46616431,21.2536326 6.44137738,21.2635473 6.41659045,21.2635473 C6.3967609,21.2635473 6.35710181,21.25859 6.3224001,21.2238882 L4.84509886,19.746587 C4.80048238,19.7019705 4.79552499,19.6325671 4.8302267,19.5780359 L6.04974383,17.8677374 C6.20342282,17.6496124 6.21333759,17.362084 6.07948815,17.1340442 C5.69281199,16.4895839 5.39536878,15.7905924 5.20698809,15.0618566 C5.13758467,14.8090298 4.92937443,14.6156918 4.67159032,14.5710753 L2.57461574,14.2141434 C2.51016972,14.2042287 2.46555324,14.1496974 2.46555324,14.0852514 L2.46555324,11.9981916 C2.46555324,11.9337455 2.51016972,11.8792143 2.57461574,11.8692995 L4.641846,11.5222825 C4.9045875,11.477666 5.11775513,11.2843279 5.18220115,11.0265438 C5.36562446,10.2978079 5.64819551,9.59385902 6.02991428,8.94444136 C6.16376372,8.71640157 6.14889156,8.43383053 5.99521258,8.2206629 L4.76082328,6.48557755 C4.72612158,6.43600368 4.73107896,6.36164288 4.77569544,6.3170264 L6.25299668,4.83972516 C6.28769839,4.80502346 6.3224001,4.80006607 6.34718703,4.80006607 C6.37693135,4.80006607 6.40171829,4.80998084 6.42154783,4.824853 L8.13184625,6.04437013 C8.34997126,6.19804912 8.63749969,6.2079639 8.86553948,6.07411445 C9.50999975,5.68743829 10.2089913,5.38999509 10.9377271,5.20161439 C11.1905538,5.13221098 11.3838919,4.92400074 11.4285084,4.66621663 L11.7854403,2.56924205 C11.795355,2.50479602 11.8498863,2.46017954 11.9143323,2.46017954 L14.0013921,2.46017954 C14.0658381,2.46017954 14.1203694,2.50479602 14.1302842,2.56924205 L14.4773012,4.63647231 C14.5219177,4.8992138 14.7152558,5.11238143 14.9730399,5.17682746 C15.7216053,5.36520815 16.435469,5.65769397 17.0997588,6.04932752 C17.3277986,6.18317696 17.6103696,6.17326219 17.8284947,6.0195832 L19.5387931,4.7901513 C19.56358,4.77527914 19.5883669,4.76536436 19.6131539,4.76536436 C19.6329834,4.76536436 19.6726425,4.77032175 19.7073442,4.80502346 L21.1846455,6.2823247 C21.2292619,6.32694118 21.2342193,6.39634459 21.1995176,6.45087584 L19.9750431,8.17108903 C19.8213641,8.38425666 19.8114493,8.67178509 19.9452988,8.89982488 C20.3319749,9.54924254 20.6195034,10.2482341 20.8078841,10.9769699 C20.8723301,11.234754 21.0854977,11.4280921 21.3432818,11.4677512 L23.4253843,11.8197257 C23.4898303,11.8296404 23.5344468,11.8841717 23.5344468,11.9486177 L23.5344468,14.0356775 L23.5294894,14.0356775 Z" id="Shape"></path>
                <path d="M12.994572,7.38210021 C9.9006263,7.38210021 7.3874739,9.89525261 7.3874739,12.9891983 C7.3874739,16.0831441 9.9006263,18.5962965 12.994572,18.5962965 C16.0885177,18.5962965 18.6016701,16.0831441 18.6016701,12.9891983 C18.6016701,9.89525261 16.0885177,7.38210021 12.994572,7.38210021 Z M12.994572,16.1307432 C11.2611639,16.1307432 9.85302714,14.7226065 9.85302714,12.9891983 C9.85302714,11.2557902 11.2611639,9.84765344 12.994572,9.84765344 C14.7279801,9.84765344 16.1361169,11.2557902 16.1361169,12.9891983 C16.1361169,14.7226065 14.7279801,16.1307432 12.994572,16.1307432 Z" id="Shape"></path>
            </g>
        </g>
    </g>
</svg>